<svg width="185" height="258" viewBox="0 0 185 258" fill="none" xmlns="http://www.w3.org/2000/svg">
    <g clip-path="url(#clip0_1_12028)">
        <g filter="url(#filter0_d_1_12028)">
            <path d="M105.95 72.53C106.44 72.55 106.92 72.57 107.41 72.57C124.84 72.57 138.97 58.44 138.97 41.01C138.97 23.58 124.84 9.45001 107.41 9.45001C106.92 9.45001 106.43 9.46001 105.95 9.49001V9.45001H73.75C37.86 9.45001 8.76999 37.71 8.76999 72.56H39.21L105.95 72.52V72.53Z" fill="url(#paint0_linear_1_12028)"/>
            <path d="M107.41 101.98C106.92 101.98 106.43 101.99 105.95 102.02V101.98H8.76999L8.80999 199.16C8.78999 199.65 8.76999 200.13 8.76999 200.62C8.76999 218.05 22.9 232.18 40.33 232.18C57.76 232.18 71.89 218.05 71.89 200.62C71.89 200.13 71.88 199.64 71.85 199.16H71.89V166.96C71.89 166.33 71.86 165.7 71.84 165.08L105.96 165.06C106.45 165.08 106.93 165.1 107.42 165.1C124.85 165.1 138.98 150.97 138.98 133.54C138.98 116.11 124.85 101.98 107.42 101.98H107.41Z" fill="url(#paint1_linear_1_12028)"/>
        </g>
        <path d="M93.69 224.27V198.4H102.74V224.27H93.69Z" fill="black"/>
        <path d="M107.92 206.16V198.4H116.97V206.16H107.92ZM107.92 224.27V207.88H116.97V224.27H107.92Z" fill="black"/>
        <path d="M130.77 214.79C130.86 215.89 131.44 216.47 132.49 216.52H135.94V224.28H132.49C126.93 224.28 123.6 222.1 122.5 217.74C122.26 216.78 122.14 215.8 122.14 214.79V198.4H130.76V203.57H135.93V211.33H130.76V214.78L130.77 214.79Z" fill="black"/>
        <path d="M161.82 215.65H149.75V217.37C149.84 218.47 150.42 219.05 151.47 219.09C152.72 219.04 153.43 218.47 153.63 217.37H161.61C161.23 220.63 159.48 222.9 156.36 224.2C154.87 224.82 153.25 225.13 151.47 225.13C145.91 225.13 142.58 222.95 141.48 218.59C141.24 217.63 141.12 216.65 141.12 215.64V212.19C141.12 207.49 143.16 204.52 147.23 203.28C148.48 202.9 149.89 202.7 151.47 202.7C157.03 202.7 160.36 204.88 161.46 209.24C161.7 210.2 161.82 211.18 161.82 212.19V215.64V215.65ZM151.47 208.75C150.37 208.85 149.79 209.42 149.75 210.47V212.19H153.2V210.47C153.1 209.37 152.53 208.79 151.48 208.75H151.47Z" fill="black"/>
        <path d="M181.22 203.15C181.89 203.15 182.48 203.19 182.98 203.26C183.48 203.33 183.81 203.39 183.95 203.44L184.24 203.58V211.99L182.01 211.49C181.43 211.39 180.88 211.35 180.36 211.35C177.96 211.35 176.57 212.05 176.19 213.43C176.09 213.81 176.05 214.27 176.05 214.8V224.29H167V203.59H176.05V204.88C176.05 204.69 176.48 204.38 177.34 203.95C178.49 203.42 179.78 203.16 181.22 203.16V203.15Z" fill="black"/>
    </g>
    <defs>
        <filter id="filter0_d_1_12028" x="5.92999" y="6.61001" width="152.89" height="245.41" filterUnits="userSpaceOnUse" color-interpolation-filters="sRGB">
            <feFlood flood-opacity="0" result="BackgroundImageFix"/>
            <feColorMatrix in="SourceAlpha" type="matrix" values="0 0 0 0 0 0 0 0 0 0 0 0 0 0 0 0 0 0 127 0" result="hardAlpha"/>
            <feOffset dx="8.5" dy="8.5"/>
            <feGaussianBlur stdDeviation="5.67"/>
            <feColorMatrix type="matrix" values="0 0 0 0 0.0156863 0 0 0 0 0 0 0 0 0 0 0 0 0 0.23 0"/>
            <feBlend mode="normal" in2="BackgroundImageFix" result="effect1_dropShadow_1_12028"/>
            <feBlend mode="normal" in="SourceGraphic" in2="effect1_dropShadow_1_12028" result="shape"/>
        </filter>
        <linearGradient id="paint0_linear_1_12028" x1="36.7" y1="13.08" x2="172.42" y2="148.8" gradientUnits="userSpaceOnUse">
            <stop stop-color="#DE2379"/>
            <stop offset="1" stop-color="#E9714A"/>
        </linearGradient>
        <linearGradient id="paint1_linear_1_12028" x1="9.47999" y1="102.69" x2="101.33" y2="194.55" gradientUnits="userSpaceOnUse">
            <stop stop-color="#DE2379"/>
            <stop offset="1" stop-color="#E9714A"/>
        </linearGradient>
        <clipPath id="clip0_1_12028">
            <rect width="184.24" height="258" fill="white"/>
        </clipPath>
    </defs>
</svg>
